 <svg  version="1.0" xmlns="http://www.w3.org/2000/svg"  width="282.000000pt" height="239.000000pt" viewBox="0 0 282.000000 239.000000"  preserveAspectRatio="xMidYMid meet">  <g transform="translate(0.000000,239.000000) scale(0.100000,-0.100000)" fill="#ffffff" stroke="none"> <path d="M30 1195 l0 -1165 630 0 c517 0 632 2 636 13 3 8 -32 67 -78 131 -46 65 -102 145 -125 179 -23 33 -47 64 -55 68 -7 5 -131 9 -275 9 l-263 0 0 750 0 751 323 -4 c316 -4 402 -10 413 -28 3 -5 12 -9 20 -9 18 0 108 -41 112 -52 2 -4 9 -8 15 -8 15 -1 116 -95 145 -137 32 -45 82 -143 82 -159 0 -8 4 -22 9 -32 13 -24 28 -85 42 -172 7 -41 15 -79 19 -83 6 -6 40 31 108 118 4 6 30 37 57 70 28 34 64 78 80 99 32 41 52 65 91 109 26 29 26 38 -3 107 -78 187 -193 330 -341 423 -26 16 -48 33 -50 38 -2 5 -10 9 -18 9 -14 0 -54 19 -64 31 -3 3 -21 11 -40 18 -19 7 -44 17 -55 21 -44 19 -124 40 -200 55 -66 12 -182 15 -647 15 l-568 0 0 -1165z"/> <path d="M2759 2132 c-14 -15 -49 -56 -78 -92 -30 -36 -77 -92 -105 -124 -61 -70 -124 -144 -151 -177 -66 -80 -170 -205 -175 -209 -3 -3 -30 -34 -59 -70 -30 -36 -57 -67 -60 -70 -3 -3 -40 -45 -80 -95 -41 -49 -91 -108 -110 -130 -20 -22 -54 -62 -76 -89 -40 -49 -96 -116 -162 -191 -20 -21 -42 -49 -50 -62 -20 -29 -25 -29 -45 5 -9 15 -27 38 -40 52 -13 14 -39 45 -58 70 -19 25 -42 54 -52 65 -28 35 -142 176 -171 214 -15 20 -36 45 -45 56 -9 11 -33 40 -52 65 -19 25 -37 47 -40 50 -3 3 -25 30 -50 60 -25 30 -48 57 -52 58 -5 2 -8 10 -8 17 0 7 -4 15 -8 17 -4 2 -32 34 -62 71 -59 73 -71 80 -146 75 l-49 -3 -3 -284 -2 -283 57 -72 c31 -39 62 -75 68 -81 6 -5 26 -31 45 -57 18 -27 36 -48 40 -48 3 0 14 -14 24 -30 9 -17 27 -41 39 -53 12 -12 38 -42 57 -67 19 -25 37 -47 40 -50 3 -3 17 -21 32 -42 15 -20 33 -42 40 -50 7 -7 25 -29 40 -50 15 -20 33 -42 40 -50 7 -7 25 -29 40 -50 15 -20 33 -42 40 -50 7 -7 25 -29 40 -50 15 -20 33 -42 40 -50 7 -7 25 -29 40 -50 15 -20 34 -42 41 -50 7 -7 28 -34 47 -60 18 -27 41 -48 50 -48 9 0 28 14 41 32 13 17 29 36 34 42 6 6 26 31 45 56 19 25 41 51 48 59 7 8 39 46 70 85 31 39 59 73 62 76 3 3 57 68 120 145 63 77 119 145 125 152 5 6 30 37 55 68 25 31 62 77 83 102 l37 44 0 -465 0 -466 225 0 225 0 0 1074 c0 591 -4 1077 -9 1080 -4 3 -19 -7 -32 -22z"/> </g> </svg> 